<?xml version="1.0" encoding="UTF-8"?>
<svg xmlns="http://www.w3.org/2000/svg" xmlns:xlink="http://www.w3.org/1999/xlink" width="418px" height="418px" viewBox="0 0 418 418" version="1.1">
<g id="surface1">
<path style=" stroke:none;fill-rule:nonzero;fill:rgb(97.647059%,91.764706%,80.392157%);fill-opacity:1;" d="M 176.238281 91.234375 L 22.132812 245.339844 C 4.273438 263.195312 4.273438 292.417969 22.132812 310.277344 L 107.746094 395.890625 C 125.605469 413.75 154.828125 413.75 172.683594 395.890625 L 288.265625 280.308594 L 326.789062 241.78125 C 344.652344 223.921875 344.652344 194.699219 326.789062 176.839844 L 241.179688 91.230469 C 223.320312 73.371094 194.097656 73.371094 176.238281 91.234375 Z M 176.238281 91.234375 "/>
<path style=" stroke:none;fill-rule:nonzero;fill:rgb(97.647059%,60.392157%,59.607843%);fill-opacity:1;" d="M 241.179688 91.230469 L 326.789062 176.84375 L 328.953125 179.003906 C 338.886719 188.941406 355.148438 188.941406 365.082031 179.003906 C 375.023438 169.066406 375.023438 152.804688 365.085938 142.871094 L 275.152344 52.9375 C 265.214844 43 248.953125 43 239.019531 52.9375 C 229.082031 62.875 229.082031 79.132812 239.019531 89.070312 Z M 241.179688 91.230469 "/>
<path style=" stroke:none;fill-rule:nonzero;fill:rgb(97.647059%,60.392157%,59.607843%);fill-opacity:1;" d="M 277.265625 55.050781 L 362.972656 140.757812 C 396.023438 107.707031 355.496094 95.621094 394.179688 56.941406 L 402.453125 48.664062 C 411.59375 39.527344 411.59375 24.707031 402.453125 15.570312 C 393.316406 6.429688 378.496094 6.429688 369.359375 15.566406 L 361.082031 23.84375 C 322.402344 62.523438 310.316406 22 277.265625 55.050781 Z M 277.265625 55.050781 "/>
<path style=" stroke:none;fill-rule:nonzero;fill:rgb(0%,0%,1.176471%);fill-opacity:1;" d="M 408.609375 9.410156 C 402.546875 3.347656 394.480469 0.0078125 385.90625 0.0078125 C 377.328125 0.0078125 369.265625 3.347656 363.199219 9.410156 L 354.925781 17.6875 C 341.191406 31.417969 332.367188 33.3125 324.875 33.3125 L 324.871094 33.3125 C 322.136719 33.3125 319.410156 33.039062 316.519531 32.753906 C 313.414062 32.441406 310.210938 32.125 306.789062 32.125 C 296.035156 32.125 286.6875 35.628906 277.257812 43.3125 C 271.445312 39.070312 264.449219 36.777344 257.085938 36.777344 C 247.914062 36.777344 239.3125 40.328125 232.863281 46.777344 C 226.417969 53.222656 222.867188 61.8125 222.859375 70.96875 C 218.242188 69.746094 213.488281 69.128906 208.710938 69.128906 C 194.082031 69.128906 180.363281 74.792969 170.082031 85.074219 L 15.972656 239.179688 C -5.324219 260.480469 -5.324219 295.136719 15.972656 316.433594 L 101.585938 402.050781 C 111.867188 412.332031 125.585938 417.992188 140.214844 417.992188 C 154.839844 417.992188 168.5625 412.332031 178.84375 402.050781 L 332.949219 247.941406 C 343.230469 237.660156 348.894531 223.941406 348.894531 209.3125 C 348.894531 204.464844 348.257812 199.71875 347.050781 195.164062 C 356.210938 195.152344 364.800781 191.601562 371.242188 185.160156 C 377.691406 178.710938 381.246094 170.109375 381.246094 160.9375 C 381.246094 153.566406 378.945312 146.566406 374.699219 140.753906 C 387.582031 124.855469 386.320312 112.035156 385.265625 101.507812 C 384.132812 90.117188 383.152344 80.28125 400.332031 63.097656 L 408.609375 54.824219 C 421.128906 42.304688 421.128906 21.933594 408.609375 9.410156 Z M 113.902344 389.734375 L 28.289062 304.117188 C 13.78125 289.609375 13.78125 266.003906 28.289062 251.496094 L 176.238281 103.546875 L 198.902344 126.207031 C 200.53125 127.84375 202.75 128.761719 205.058594 128.757812 C 207.289062 128.757812 209.515625 127.90625 211.21875 126.207031 C 214.617188 122.804688 214.617188 117.292969 211.214844 113.890625 L 189.289062 91.964844 C 195.0625 88.4375 201.730469 86.546875 208.710938 86.546875 C 218.683594 86.546875 228.027344 90.398438 235.019531 97.386719 L 320.632812 183 C 327.625 189.992188 331.476562 199.335938 331.476562 209.3125 C 331.476562 216.292969 329.585938 222.960938 326.058594 228.734375 L 291.804688 194.480469 C 288.402344 191.078125 282.890625 191.078125 279.488281 194.480469 C 276.085938 197.878906 276.085938 203.394531 279.488281 206.792969 L 314.476562 241.785156 L 288.265625 267.992188 L 253.277344 233.003906 C 249.875 229.605469 244.363281 229.605469 240.960938 233.003906 C 237.558594 236.40625 237.558594 241.921875 240.960938 245.320312 L 275.949219 280.308594 L 249.738281 306.519531 L 214.753906 271.53125 C 211.351562 268.132812 205.839844 268.132812 202.4375 271.53125 C 199.035156 274.933594 199.035156 280.445312 202.4375 283.847656 L 237.425781 318.835938 L 211.210938 345.046875 L 176.222656 310.058594 C 172.820312 306.65625 167.308594 306.65625 163.90625 310.058594 C 160.507812 313.457031 160.507812 318.972656 163.90625 322.375 L 198.894531 357.363281 L 172.6875 383.570312 L 132.933594 343.820312 C 129.535156 340.417969 124.019531 340.417969 120.617188 343.820312 C 117.21875 347.21875 117.21875 352.734375 120.617188 356.132812 L 159.636719 395.15625 C 153.863281 398.683594 147.195312 400.574219 140.210938 400.574219 C 130.238281 400.574219 120.894531 396.726562 113.902344 389.734375 Z M 358.925781 172.84375 C 355.765625 176.003906 351.535156 177.746094 347.015625 177.746094 C 342.5 177.746094 338.273438 176.007812 335.113281 172.847656 L 245.175781 82.910156 C 242.015625 79.75 240.273438 75.523438 240.273438 71.003906 C 240.273438 66.488281 242.015625 62.257812 245.179688 59.09375 C 248.339844 55.933594 252.566406 54.195312 257.085938 54.195312 C 261.605469 54.195312 265.835938 55.933594 268.996094 59.09375 L 271.085938 61.1875 C 271.09375 61.195312 271.101562 61.199219 271.109375 61.207031 L 356.816406 146.914062 C 356.824219 146.921875 356.832031 146.929688 356.839844 146.933594 L 358.929688 149.027344 C 362.089844 152.1875 363.828125 156.417969 363.828125 160.933594 C 363.828125 165.453125 362.089844 169.683594 358.925781 172.84375 Z M 396.292969 42.507812 L 388.015625 50.78125 C 365 73.800781 366.628906 90.121094 367.9375 103.234375 C 368.808594 111.988281 369.484375 118.753906 362.570312 128.039062 L 289.992188 55.460938 C 296.847656 50.382812 302.105469 49.542969 306.789062 49.542969 C 309.339844 49.542969 311.988281 49.804688 314.789062 50.085938 C 317.972656 50.402344 321.269531 50.730469 324.867188 50.730469 L 324.871094 50.730469 C 339.835938 50.730469 352.902344 44.335938 367.238281 30.003906 L 375.511719 21.726562 C 378.261719 18.960938 382.003906 17.414062 385.902344 17.421875 C 389.828125 17.421875 393.515625 18.953125 396.292969 21.726562 C 402.023438 27.457031 402.023438 36.777344 396.292969 42.507812 Z M 396.292969 42.507812 "/>
<path style=" stroke:none;fill-rule:nonzero;fill:rgb(0%,0%,1.176471%);fill-opacity:1;" d="M 115.09375 325.984375 C 111.691406 322.582031 106.179688 322.582031 102.777344 325.984375 C 99.375 329.382812 99.375 334.898438 102.777344 338.300781 L 102.925781 338.445312 C 104.554688 340.082031 106.773438 341 109.082031 340.996094 C 111.3125 340.996094 113.539062 340.148438 115.242188 338.445312 C 118.644531 335.046875 118.644531 329.53125 115.242188 326.128906 Z M 216.78125 144.089844 C 218.410156 145.699219 220.605469 146.597656 222.894531 146.59375 C 225.144531 146.59375 227.394531 145.730469 229.097656 144 C 232.472656 140.574219 232.433594 135.058594 229.007812 131.683594 L 228.859375 131.539062 C 225.433594 128.164062 219.921875 128.203125 216.546875 131.628906 C 213.167969 135.054688 213.210938 140.570312 216.636719 143.945312 Z M 216.78125 144.089844 "/>
</g>
</svg>
